<?xml version="1.0" encoding="UTF-8"?>
<svg width="386px" height="386px" viewBox="0 0 386 386" version="1.1" xmlns="http://www.w3.org/2000/svg" xmlns:xlink="http://www.w3.org/1999/xlink">
    <!-- Generator: Sketch 49 (51002) - http://www.bohemiancoding.com/sketch -->
    <title>Jaxcore</title>
    <defs></defs>
    <g id="Page-1" stroke="none" stroke-width="1" fill="none" fill-rule="evenodd">
        <g id="Group" transform="translate(0.000000, 1.000000)">
            <path d="M193.109801,211.998846 C193.073395,211.999615 193.036795,212 193,212 C176.47044,212 160.84572,227.091706 148.14354,239 C132.395849,253.76346 128.856082,274.526389 124.360418,288.341373 C117.868858,316.225566 92.8604936,337 63,337 C28.2060608,337 0,308.793939 0,274 C0,239.206061 28.2060608,211 63,211 C63.0242973,211 63.0499532,211 63.0772091,211.000046 C67.4554803,211.005298 71.7291257,211.457169 75.8550345,212.312549 C79.0624976,212.728957 83.0858318,213.27747 88.1435395,214 C109.14354,217 119.683715,214.495536 124.14354,214 C133.14354,213 161.045081,203.886127 162.14354,194 C163.14354,185 138.14354,172 123.14354,168 C117.025218,166.368448 111.582502,164.258353 97.1435395,164 C86.6226089,163.811752 76.0245503,164.959695 69.5091586,165.596548 C68.292223,165.748517 67.0622234,165.858434 65.8206598,165.924801 C65.1434774,165.972834 64.5797085,166 64.1435395,166 C64.0449213,166 63.9481656,165.997704 63.8532524,165.993141 C63.5693819,165.997708 63.2849586,166 63,166 C34.281193,166 11,142.718807 11,114 C11,85.281193 34.281193,62 63,62 C84.9447837,62 103.714608,75.5936176 111.348306,94.8196866 C115.913852,105.656851 117.362237,112.801897 122.14354,123 C127.044356,133.453016 131.987066,138.439899 139.14354,145 C151.14354,156 176,171 193,171 C193.022434,171 193.045119,171.001901 193.068046,171.005677 C193.093064,171.001201 193.117794,170.998946 193.142227,170.998946 C210,170.998946 234.998688,155.998946 246.998688,144.998946 C254.155162,138.438845 259.097871,133.451962 263.998688,122.998946 C268.319313,113.783428 269.918332,107.060986 273.555297,97.8543155 C280.347687,77.0396749 299.917492,62 323,62 C351.718807,62 375,85.281193 375,114 C375,142.718807 351.718807,166 323,166 C322.744202,166 322.488836,165.998153 322.233914,165.994472 C322.156712,165.997449 322.078307,165.998946 321.998688,165.998946 C321.657583,165.998946 321.238439,165.982331 320.748039,165.952114 C319.149723,165.884011 317.570087,165.74376 316.012305,165.534534 C309.457345,164.888405 299.191818,163.816563 288.998688,163.998946 C274.559726,164.257299 269.117009,166.367394 262.998688,167.998946 C247.998688,171.998946 222.998688,184.998946 223.998688,193.998946 C225.097147,203.885073 252.998688,212.998946 261.998688,213.998946 C266.458512,214.494482 276.998688,216.998946 297.998688,213.998946 C302.867414,213.303414 306.777621,212.769137 309.924222,212.358728 C314.107735,211.475685 318.444321,211.00777 322.888867,211.000096 C322.988882,210.998946 323.071338,210.998946 323.142227,210.998946 C324.011109,210.998946 324.840957,211.017639 325.632216,211.053992 C359.20543,212.433836 386,240.087814 386,274 C386,308.793939 357.793939,337 323,337 C292.621082,337 267.264236,315.497951 261.318287,286.882676 C257.026721,273.09646 253.201791,253.251855 237.998688,238.998946 C225.296508,227.090652 209.671787,211.998946 193.142227,211.998946 C193.131402,211.998946 193.120593,211.998913 193.109801,211.998846 Z M63,306 C80.673112,306 95,291.673112 95,274 C95,256.326888 80.673112,242 63,242 C45.326888,242 31,256.326888 31,274 C31,291.673112 45.326888,306 63,306 Z M323,306 C340.673112,306 355,291.673112 355,274 C355,256.326888 340.673112,242 323,242 C305.326888,242 291,256.326888 291,274 C291,291.673112 305.326888,306 323,306 Z" id="Combined-Shape" fill="#000000"></path>
            <path d="M193,126 C158.206061,126 130,97.7939392 130,63 C130,28.2060608 158.206061,0 193,0 C227.793939,0 256,28.2060608 256,63 C256,97.7939392 227.793939,126 193,126 Z M193,95 C210.673112,95 225,80.673112 225,63 C225,45.326888 210.673112,31 193,31 C175.326888,31 161,45.326888 161,63 C161,80.673112 175.326888,95 193,95 Z" id="Up" stroke="#000000" fill="#000000"></path>
            <circle id="Down" stroke="#000000" fill="#000000" cx="195" cy="332" r="52"></circle>
            <path d="M63,114 L323,274" id="Line"></path>
            <path d="M323,274 L63,114" id="Line" transform="translate(193.000000, 194.000000) scale(-1, 1) translate(-193.000000, -194.000000) "></path>
        </g>
    </g>
</svg>